<svg width="16" height="16" viewBox="0 0 16 16" fill="none" xmlns="http://www.w3.org/2000/svg">
<path d="M5.32173 6.44075L7.96668 9.08569L14.8112 2.24114C15.6592 1.39314 16.4668 2.30171 15.6794 3.08914L8.61277 10.1558C8.08782 10.6807 7.86573 10.7211 7.34078 10.1962L4.45354 7.30893C3.74688 6.60227 4.59488 5.73408 5.32173 6.44075ZM15.8611 7.04646C15.9217 7.53103 15.9217 7.99541 15.9015 8.47998C15.6189 12.8007 11.8836 16.1321 7.5023 15.8899C3.48441 15.6678 0.233746 12.4373 0.0116518 8.37903C-0.109491 6.13789 0.718316 3.95732 2.29317 2.36228C3.72669 0.908569 5.74573 0 7.94649 0C9.50115 0 11.0356 0.46438 12.3278 1.31238C13.1556 1.85752 12.6105 2.92761 11.601 2.28152C10.5309 1.57485 9.25887 1.19123 7.96668 1.19123C6.18992 1.19123 4.57469 1.87771 3.38345 2.98818C1.90955 4.36113 1.12213 6.29941 1.24327 8.31845C1.44517 11.7306 4.17088 14.4362 7.52249 14.6582C11.2375 14.9207 14.4276 12.0941 14.6901 8.41941C14.7103 8.0156 14.7103 7.5916 14.6699 7.1676C14.5488 6.17827 15.7602 6.05713 15.8611 7.04646Z" fill="#38B587"/>
</svg>
