<svg width="18" height="18" viewBox="0 0 18 18" fill="none" xmlns="http://www.w3.org/2000/svg">
<path d="M10.455 16.8719C10.6167 16.8411 10.7784 16.8104 10.9324 16.7719C11.0325 16.7488 11.1249 16.6795 11.1788 16.5949C11.2327 16.5025 11.2482 16.3947 11.225 16.2946C11.1788 16.1176 11.0248 15.9944 10.84 15.9944C10.8092 15.9944 10.7784 16.0021 10.7476 16.0098C10.6014 16.0483 10.4627 16.0791 10.3164 16.1022C10.1008 16.1406 9.9622 16.3485 10.0008 16.564C10.0161 16.6641 10.0777 16.7564 10.1624 16.818C10.2317 16.8642 10.3087 16.8873 10.3857 16.8873C10.4088 16.8797 10.4319 16.8797 10.455 16.8719ZM16.23 7.01164C16.2684 7.01164 16.3147 7.00393 16.3531 6.98853C16.561 6.91925 16.6765 6.696 16.6072 6.48819C16.5534 6.33424 16.4995 6.18031 16.4379 6.02637C16.3763 5.87242 16.23 5.78005 16.0683 5.78005C16.0144 5.78005 15.9682 5.78776 15.922 5.81087C15.8219 5.84932 15.7449 5.92633 15.7064 6.01868C15.6679 6.11105 15.6602 6.22649 15.7064 6.31886C15.7603 6.45741 15.8142 6.59598 15.8604 6.73452C15.8835 6.81148 15.9374 6.88078 16.0066 6.93468C16.0683 6.98857 16.1453 7.01164 16.23 7.01164ZM12.8112 15.9867C12.8805 15.9867 12.9498 15.9713 13.0114 15.9329C13.15 15.8482 13.2963 15.7635 13.4272 15.6788C13.5119 15.6173 13.5735 15.5326 13.5966 15.4248C13.6197 15.3248 13.5966 15.217 13.5427 15.1246C13.4657 15.0169 13.3425 14.9476 13.2116 14.9476C13.1346 14.9476 13.0576 14.9707 12.996 15.0169C12.8728 15.1015 12.7496 15.1785 12.6187 15.2477C12.4262 15.3555 12.3646 15.6019 12.4724 15.7866C12.5033 15.8405 12.5417 15.8789 12.588 15.9097C12.6495 15.956 12.7265 15.9867 12.8112 15.9867ZM16.384 9.49788C16.4455 9.54404 16.5225 9.56716 16.5996 9.56716H16.6072C16.8229 9.56716 17 9.39013 17 9.18226C17 9.02062 17 8.85899 16.9923 8.69733C16.9846 8.48183 16.8075 8.32014 16.5996 8.32014H16.5842C16.3685 8.32783 16.1992 8.51259 16.2069 8.72809C16.2146 8.87435 16.2146 9.02061 16.2069 9.16686C16.2146 9.29774 16.2762 9.42089 16.384 9.49788ZM15.3291 13.2542C15.2598 13.2003 15.1751 13.1772 15.0904 13.1772C14.9672 13.1772 14.8517 13.2388 14.7747 13.3389C14.69 13.4544 14.5976 13.5698 14.4975 13.6853C14.359 13.8546 14.3743 14.1009 14.5437 14.2395C14.5514 14.2472 14.5591 14.2548 14.5745 14.2626C14.6439 14.3088 14.7208 14.3319 14.8055 14.3319C14.921 14.3319 15.0288 14.278 15.1058 14.1933C15.2136 14.0702 15.3137 13.9393 15.4138 13.8085C15.537 13.639 15.4985 13.3851 15.3291 13.2542ZM16.384 10.8911C16.3455 10.8757 16.307 10.8757 16.2684 10.8757C16.0914 10.8757 15.9451 10.9835 15.8911 11.1528C15.8449 11.2913 15.7987 11.4299 15.7449 11.5685C15.6833 11.7378 15.7372 11.9302 15.8834 12.0303C15.9066 12.0456 15.9373 12.0611 15.9682 12.0764C16.0143 12.0918 16.0605 12.0996 16.1068 12.0996C16.2684 12.0996 16.4147 11.9995 16.4763 11.8455C16.5302 11.6993 16.5841 11.5453 16.638 11.3837C16.7074 11.1836 16.5919 10.9604 16.384 10.8911ZM14.767 3.84802C14.8055 3.84802 14.844 3.82497 14.8593 3.80186C14.8747 3.77875 14.8824 3.74027 14.867 3.7018L14.2896 1.62349L13.6813 2.50099L13.458 2.35474C12.1336 1.46958 10.6013 1 9.01511 1C8.55313 1 8.0911 1.03851 7.62913 1.12315C7.4289 1.16165 7.22102 1.20014 7.02084 1.25401L6.99773 1.26172C5.21906 1.71586 3.69442 2.7396 2.59339 4.20981L2.57801 4.23286C2.57801 4.24057 2.5703 4.24057 2.5703 4.24826C2.53178 4.30217 2.49326 4.34832 2.46251 4.40221C2.4009 4.48687 2.34701 4.57157 2.29309 4.65624L2.27769 4.68701C1.36914 6.08791 0.937914 7.70436 1.0072 9.36698C1.0072 9.37469 1.0072 9.38238 1.0072 9.39009C1.01488 9.54402 1.03032 9.70567 1.0457 9.86733L1.05341 9.89814C1.06882 10.0675 1.09193 10.2291 1.12276 10.3831C1.40762 12.0303 2.18534 13.5235 3.36344 14.6858L3.37115 14.6936C3.68684 15.0014 4.03332 15.2939 4.39522 15.5479C5.35775 16.2253 6.43572 16.6795 7.58301 16.8796C7.60612 16.8872 7.62918 16.8872 7.65232 16.8872C7.84481 16.8872 8.0065 16.7487 8.03731 16.564C8.0527 16.4563 8.02962 16.3561 7.9757 16.2715C7.91414 16.1868 7.82172 16.1252 7.72159 16.1098C7.10559 16.002 6.51271 15.8096 5.95059 15.5479L5.94293 15.5402C5.93522 15.5402 5.93522 15.5325 5.92755 15.5325C5.79666 15.471 5.66574 15.4094 5.55023 15.3401H5.54251L5.504 15.317C5.28071 15.1938 5.06513 15.0553 4.85725 14.909C3.28642 13.8006 2.23924 12.1456 1.90813 10.2445C1.57704 8.34319 2.00823 6.43428 3.11706 4.86401C3.60217 4.17125 4.2027 3.57858 4.888 3.1013L4.91112 3.08596C6.1277 2.24691 7.54451 1.80818 9.0229 1.80818C10.4473 1.80818 11.8257 2.22386 13.0115 3.01666L13.2424 3.1706L12.6341 4.05579L14.767 3.84802ZM13.2116 11.8533C13.3117 11.8533 13.404 11.7994 13.4503 11.707C13.5196 11.5762 13.4656 11.4145 13.3348 11.3453L8.8688 9.03608V4.16364C8.8688 4.0174 8.74561 3.89423 8.59929 3.89423C8.45296 3.89423 8.32983 4.01738 8.32983 4.16364V9.35933L13.0884 11.8225C13.1269 11.8456 13.1654 11.8533 13.2116 11.8533Z" fill="#FF9900" stroke="#FF9900" stroke-width="0.5"/>
</svg>
