<svg width="18" height="18" viewBox="0 0 18 18" fill="none" xmlns="http://www.w3.org/2000/svg">
<path d="M16.6667 8.61875C16.4827 8.61875 16.3333 8.76715 16.3333 8.95C16.3333 12.9681 13.0433 16.2375 9 16.2375C4.95667 16.2375 1.66667 12.9681 1.66667 8.95C1.66667 4.93194 4.95667 1.6625 9 1.6625C10.8473 1.6625 12.5907 2.33692 13.9447 3.56785L9 8.48161L6.90267 6.39672C6.77267 6.26754 6.56133 6.26754 6.43133 6.39672C6.30133 6.52591 6.30133 6.73592 6.43133 6.86511L8.52867 8.95L6.43133 11.0349C6.30133 11.1641 6.30133 11.3741 6.43133 11.5033C6.56133 11.6325 6.77267 11.6325 6.90267 11.5033L9 9.41839L11.0973 11.5026C11.1627 11.5675 11.248 11.6 11.3333 11.6C11.4187 11.6 11.504 11.5675 11.5693 11.5033C11.6993 11.3741 11.6993 11.1641 11.5693 11.0349L9.47133 8.95L14.6567 3.79707C14.7867 3.66789 14.7867 3.45787 14.6567 3.32869C13.146 1.8268 11.1373 1 9 1C4.58867 1 1 4.56624 1 8.95C1 13.3338 4.58867 16.9 9 16.9C13.4113 16.9 17 13.3338 17 8.95C17 8.76715 16.8507 8.61875 16.6667 8.61875Z" fill="#DB375E" stroke="#DB375E" stroke-width="0.5"/>
</svg>
